<svg width="100" height="100" viewBox="0 0 100 100" fill="none" xmlns="http://www.w3.org/2000/svg">
<g clip-path="url(#clip0_905_2)">
<g clip-path="url(#clip1_905_2)">
<path d="M100 0H0V100H100V0Z" fill="white"/>
<path d="M45.2 10H42V13.2H45.2V10Z" fill="black"/>
<path d="M51.5999 10H48.3999V13.2H51.5999V10Z" fill="black"/>
<path d="M58 10H54.8V13.2H58V10Z" fill="black"/>
<path d="M38.8001 13.2002H35.6001V16.4002H38.8001V13.2002Z" fill="black"/>
<path d="M45.2 13.2002H42V16.4002H45.2V13.2002Z" fill="black"/>
<path d="M54.8001 13.2002H51.6001V16.4002H54.8001V13.2002Z" fill="black"/>
<path d="M58 13.2002H54.8V16.4002H58V13.2002Z" fill="black"/>
<path d="M61.2 13.2002H58V16.4002H61.2V13.2002Z" fill="black"/>
<path d="M51.5999 16.4004H48.3999V19.6004H51.5999V16.4004Z" fill="black"/>
<path d="M54.8001 16.4004H51.6001V19.6004H54.8001V16.4004Z" fill="black"/>
<path d="M64.4 16.4004H61.2V19.6004H64.4V16.4004Z" fill="black"/>
<path d="M38.8001 19.5996H35.6001V22.7996H38.8001V19.5996Z" fill="black"/>
<path d="M42 19.5996H38.8V22.7996H42V19.5996Z" fill="black"/>
<path d="M45.2 19.5996H42V22.7996H45.2V19.5996Z" fill="black"/>
<path d="M51.5999 19.5996H48.3999V22.7996H51.5999V19.5996Z" fill="black"/>
<path d="M54.8001 19.5996H51.6001V22.7996H54.8001V19.5996Z" fill="black"/>
<path d="M58 19.5996H54.8V22.7996H58V19.5996Z" fill="black"/>
<path d="M61.2 19.5996H58V22.7996H61.2V19.5996Z" fill="black"/>
<path d="M42 22.7998H38.8V25.9998H42V22.7998Z" fill="black"/>
<path d="M58 22.7998H54.8V25.9998H58V22.7998Z" fill="black"/>
<path d="M64.4 22.7998H61.2V25.9998H64.4V22.7998Z" fill="black"/>
<path d="M38.8001 26H35.6001V29.2H38.8001V26Z" fill="black"/>
<path d="M42 26H38.8V29.2H42V26Z" fill="black"/>
<path d="M48.4 26H45.2V29.2H48.4V26Z" fill="black"/>
<path d="M51.5999 26H48.3999V29.2H51.5999V26Z" fill="black"/>
<path d="M54.8001 26H51.6001V29.2H54.8001V26Z" fill="black"/>
<path d="M58 26H54.8V29.2H58V26Z" fill="black"/>
<path d="M38.8001 29.2002H35.6001V32.4002H38.8001V29.2002Z" fill="black"/>
<path d="M45.2 29.2002H42V32.4002H45.2V29.2002Z" fill="black"/>
<path d="M51.5999 29.2002H48.3999V32.4002H51.5999V29.2002Z" fill="black"/>
<path d="M58 29.2002H54.8V32.4002H58V29.2002Z" fill="black"/>
<path d="M64.4 29.2002H61.2V32.4002H64.4V29.2002Z" fill="black"/>
<path d="M42 32.4004H38.8V35.6004H42V32.4004Z" fill="black"/>
<path d="M45.2 32.4004H42V35.6004H45.2V32.4004Z" fill="black"/>
<path d="M48.4 32.4004H45.2V35.6004H48.4V32.4004Z" fill="black"/>
<path d="M54.8001 32.4004H51.6001V35.6004H54.8001V32.4004Z" fill="black"/>
<path d="M13.2 35.5996H10V38.7996H13.2V35.5996Z" fill="black"/>
<path d="M16.4 35.5996H13.2V38.7996H16.4V35.5996Z" fill="black"/>
<path d="M19.5999 35.5996H16.3999V38.7996H19.5999V35.5996Z" fill="black"/>
<path d="M22.8001 35.5996H19.6001V38.7996H22.8001V35.5996Z" fill="black"/>
<path d="M26 35.5996H22.8V38.7996H26V35.5996Z" fill="black"/>
<path d="M32.4 35.5996H29.2V38.7996H32.4V35.5996Z" fill="black"/>
<path d="M35.5999 35.5996H32.3999V38.7996H35.5999V35.5996Z" fill="black"/>
<path d="M38.8001 35.5996H35.6001V38.7996H38.8001V35.5996Z" fill="black"/>
<path d="M42 35.5996H38.8V38.7996H42V35.5996Z" fill="black"/>
<path d="M48.4 35.5996H45.2V38.7996H48.4V35.5996Z" fill="black"/>
<path d="M58 35.5996H54.8V38.7996H58V35.5996Z" fill="black"/>
<path d="M61.2 35.5996H58V38.7996H61.2V35.5996Z" fill="black"/>
<path d="M67.5999 35.5996H64.3999V38.7996H67.5999V35.5996Z" fill="black"/>
<path d="M74 35.5996H70.8V38.7996H74V35.5996Z" fill="black"/>
<path d="M80.4 35.5996H77.2V38.7996H80.4V35.5996Z" fill="black"/>
<path d="M86.8001 35.5996H83.6001V38.7996H86.8001V35.5996Z" fill="black"/>
<path d="M16.4 38.7998H13.2V41.9998H16.4V38.7998Z" fill="black"/>
<path d="M19.5999 38.7998H16.3999V41.9998H19.5999V38.7998Z" fill="black"/>
<path d="M22.8001 38.7998H19.6001V41.9998H22.8001V38.7998Z" fill="black"/>
<path d="M26 38.7998H22.8V41.9998H26V38.7998Z" fill="black"/>
<path d="M45.2 38.7998H42V41.9998H45.2V38.7998Z" fill="black"/>
<path d="M51.5999 38.7998H48.3999V41.9998H51.5999V38.7998Z" fill="black"/>
<path d="M58 38.7998H54.8V41.9998H58V38.7998Z" fill="black"/>
<path d="M61.2 38.7998H58V41.9998H61.2V38.7998Z" fill="black"/>
<path d="M64.4 38.7998H61.2V41.9998H64.4V38.7998Z" fill="black"/>
<path d="M67.5999 38.7998H64.3999V41.9998H67.5999V38.7998Z" fill="black"/>
<path d="M74 38.7998H70.8V41.9998H74V38.7998Z" fill="black"/>
<path d="M77.2 38.7998H74V41.9998H77.2V38.7998Z" fill="black"/>
<path d="M90 38.7998H86.8V41.9998H90V38.7998Z" fill="black"/>
<path d="M16.4 42H13.2V45.2H16.4V42Z" fill="black"/>
<path d="M19.5999 42H16.3999V45.2H19.5999V42Z" fill="black"/>
<path d="M26 42H22.8V45.2H26V42Z" fill="black"/>
<path d="M32.4 42H29.2V45.2H32.4V42Z" fill="black"/>
<path d="M45.2 42H42V45.2H45.2V42Z" fill="black"/>
<path d="M54.8001 42H51.6001V45.2H54.8001V42Z" fill="black"/>
<path d="M61.2 42H58V45.2H61.2V42Z" fill="black"/>
<path d="M64.4 42H61.2V45.2H64.4V42Z" fill="black"/>
<path d="M67.5999 42H64.3999V45.2H67.5999V42Z" fill="black"/>
<path d="M70.8001 42H67.6001V45.2H70.8001V42Z" fill="black"/>
<path d="M77.2 42H74V45.2H77.2V42Z" fill="black"/>
<path d="M83.5999 42H80.3999V45.2H83.5999V42Z" fill="black"/>
<path d="M13.2 45.2002H10V48.4002H13.2V45.2002Z" fill="black"/>
<path d="M16.4 45.2002H13.2V48.4002H16.4V45.2002Z" fill="black"/>
<path d="M19.5999 45.2002H16.3999V48.4002H19.5999V45.2002Z" fill="black"/>
<path d="M22.8001 45.2002H19.6001V48.4002H22.8001V45.2002Z" fill="black"/>
<path d="M35.5999 45.2002H32.3999V48.4002H35.5999V45.2002Z" fill="black"/>
<path d="M38.8001 45.2002H35.6001V48.4002H38.8001V45.2002Z" fill="black"/>
<path d="M51.5999 45.2002H48.3999V48.4002H51.5999V45.2002Z" fill="black"/>
<path d="M54.8001 45.2002H51.6001V48.4002H54.8001V45.2002Z" fill="black"/>
<path d="M64.4 45.2002H61.2V48.4002H64.4V45.2002Z" fill="black"/>
<path d="M67.5999 45.2002H64.3999V48.4002H67.5999V45.2002Z" fill="black"/>
<path d="M16.4 48.4004H13.2V51.6004H16.4V48.4004Z" fill="black"/>
<path d="M19.5999 48.4004H16.3999V51.6004H19.5999V48.4004Z" fill="black"/>
<path d="M26 48.4004H22.8V51.6004H26V48.4004Z" fill="black"/>
<path d="M29.2 48.4004H26V51.6004H29.2V48.4004Z" fill="black"/>
<path d="M32.4 48.4004H29.2V51.6004H32.4V48.4004Z" fill="black"/>
<path d="M38.8001 48.4004H35.6001V51.6004H38.8001V48.4004Z" fill="black"/>
<path d="M42 48.4004H38.8V51.6004H42V48.4004Z" fill="black"/>
<path d="M45.2 48.4004H42V51.6004H45.2V48.4004Z" fill="black"/>
<path d="M51.5999 48.4004H48.3999V51.6004H51.5999V48.4004Z" fill="black"/>
<path d="M54.8001 48.4004H51.6001V51.6004H54.8001V48.4004Z" fill="black"/>
<path d="M58 48.4004H54.8V51.6004H58V48.4004Z" fill="black"/>
<path d="M61.2 48.4004H58V51.6004H61.2V48.4004Z" fill="black"/>
<path d="M64.4 48.4004H61.2V51.6004H64.4V48.4004Z" fill="black"/>
<path d="M70.8001 48.4004H67.6001V51.6004H70.8001V48.4004Z" fill="black"/>
<path d="M74 48.4004H70.8V51.6004H74V48.4004Z" fill="black"/>
<path d="M77.2 48.4004H74V51.6004H77.2V48.4004Z" fill="black"/>
<path d="M80.4 48.4004H77.2V51.6004H80.4V48.4004Z" fill="black"/>
<path d="M86.8001 48.4004H83.6001V51.6004H86.8001V48.4004Z" fill="black"/>
<path d="M90 48.4004H86.8V51.6004H90V48.4004Z" fill="black"/>
<path d="M13.2 51.5996H10V54.7996H13.2V51.5996Z" fill="black"/>
<path d="M16.4 51.5996H13.2V54.7996H16.4V51.5996Z" fill="black"/>
<path d="M19.5999 51.5996H16.3999V54.7996H19.5999V51.5996Z" fill="black"/>
<path d="M26 51.5996H22.8V54.7996H26V51.5996Z" fill="black"/>
<path d="M29.2 51.5996H26V54.7996H29.2V51.5996Z" fill="black"/>
<path d="M35.5999 51.5996H32.3999V54.7996H35.5999V51.5996Z" fill="black"/>
<path d="M58 51.5996H54.8V54.7996H58V51.5996Z" fill="black"/>
<path d="M61.2 51.5996H58V54.7996H61.2V51.5996Z" fill="black"/>
<path d="M74 51.5996H70.8V54.7996H74V51.5996Z" fill="black"/>
<path d="M77.2 51.5996H74V54.7996H77.2V51.5996Z" fill="black"/>
<path d="M86.8001 51.5996H83.6001V54.7996H86.8001V51.5996Z" fill="black"/>
<path d="M13.2 54.7998H10V57.9998H13.2V54.7998Z" fill="black"/>
<path d="M26 54.7998H22.8V57.9998H26V54.7998Z" fill="black"/>
<path d="M29.2 54.7998H26V57.9998H29.2V54.7998Z" fill="black"/>
<path d="M32.4 54.7998H29.2V57.9998H32.4V54.7998Z" fill="black"/>
<path d="M35.5999 54.7998H32.3999V57.9998H35.5999V54.7998Z" fill="black"/>
<path d="M45.2 54.7998H42V57.9998H45.2V54.7998Z" fill="black"/>
<path d="M48.4 54.7998H45.2V57.9998H48.4V54.7998Z" fill="black"/>
<path d="M51.5999 54.7998H48.3999V57.9998H51.5999V54.7998Z" fill="black"/>
<path d="M67.5999 54.7998H64.3999V57.9998H67.5999V54.7998Z" fill="black"/>
<path d="M70.8001 54.7998H67.6001V57.9998H70.8001V54.7998Z" fill="black"/>
<path d="M77.2 54.7998H74V57.9998H77.2V54.7998Z" fill="black"/>
<path d="M83.5999 54.7998H80.3999V57.9998H83.5999V54.7998Z" fill="black"/>
<path d="M90 54.7998H86.8V57.9998H90V54.7998Z" fill="black"/>
<path d="M13.2 58H10V61.2H13.2V58Z" fill="black"/>
<path d="M22.8001 58H19.6001V61.2H22.8001V58Z" fill="black"/>
<path d="M29.2 58H26V61.2H29.2V58Z" fill="black"/>
<path d="M45.2 58H42V61.2H45.2V58Z" fill="black"/>
<path d="M48.4 58H45.2V61.2H48.4V58Z" fill="black"/>
<path d="M64.4 58H61.2V61.2H64.4V58Z" fill="black"/>
<path d="M86.8001 58H83.6001V61.2H86.8001V58Z" fill="black"/>
<path d="M90 58H86.8V61.2H90V58Z" fill="black"/>
<path d="M13.2 61.2002H10V64.4002H13.2V61.2002Z" fill="black"/>
<path d="M19.5999 61.2002H16.3999V64.4002H19.5999V61.2002Z" fill="black"/>
<path d="M29.2 61.2002H26V64.4002H29.2V61.2002Z" fill="black"/>
<path d="M32.4 61.2002H29.2V64.4002H32.4V61.2002Z" fill="black"/>
<path d="M35.5999 61.2002H32.3999V64.4002H35.5999V61.2002Z" fill="black"/>
<path d="M38.8001 61.2002H35.6001V64.4002H38.8001V61.2002Z" fill="black"/>
<path d="M48.4 61.2002H45.2V64.4002H48.4V61.2002Z" fill="black"/>
<path d="M61.2 61.2002H58V64.4002H61.2V61.2002Z" fill="black"/>
<path d="M64.4 61.2002H61.2V64.4002H64.4V61.2002Z" fill="black"/>
<path d="M67.5999 61.2002H64.3999V64.4002H67.5999V61.2002Z" fill="black"/>
<path d="M70.8001 61.2002H67.6001V64.4002H70.8001V61.2002Z" fill="black"/>
<path d="M74 61.2002H70.8V64.4002H74V61.2002Z" fill="black"/>
<path d="M77.2 61.2002H74V64.4002H77.2V61.2002Z" fill="black"/>
<path d="M80.4 61.2002H77.2V64.4002H80.4V61.2002Z" fill="black"/>
<path d="M90 61.2002H86.8V64.4002H90V61.2002Z" fill="black"/>
<path d="M38.8001 64.4004H35.6001V67.6004H38.8001V64.4004Z" fill="black"/>
<path d="M51.5999 64.4004H48.3999V67.6004H51.5999V64.4004Z" fill="black"/>
<path d="M54.8001 64.4004H51.6001V67.6004H54.8001V64.4004Z" fill="black"/>
<path d="M61.2 64.4004H58V67.6004H61.2V64.4004Z" fill="black"/>
<path d="M64.4 64.4004H61.2V67.6004H64.4V64.4004Z" fill="black"/>
<path d="M77.2 64.4004H74V67.6004H77.2V64.4004Z" fill="black"/>
<path d="M90 64.4004H86.8V67.6004H90V64.4004Z" fill="black"/>
<path d="M38.8001 67.5996H35.6001V70.7996H38.8001V67.5996Z" fill="black"/>
<path d="M45.2 67.5996H42V70.7996H45.2V67.5996Z" fill="black"/>
<path d="M54.8001 67.5996H51.6001V70.7996H54.8001V67.5996Z" fill="black"/>
<path d="M58 67.5996H54.8V70.7996H58V67.5996Z" fill="black"/>
<path d="M61.2 67.5996H58V70.7996H61.2V67.5996Z" fill="black"/>
<path d="M64.4 67.5996H61.2V70.7996H64.4V67.5996Z" fill="black"/>
<path d="M70.8001 67.5996H67.6001V70.7996H70.8001V67.5996Z" fill="black"/>
<path d="M77.2 67.5996H74V70.7996H77.2V67.5996Z" fill="black"/>
<path d="M83.5999 67.5996H80.3999V70.7996H83.5999V67.5996Z" fill="black"/>
<path d="M86.8001 67.5996H83.6001V70.7996H86.8001V67.5996Z" fill="black"/>
<path d="M90 67.5996H86.8V70.7996H90V67.5996Z" fill="black"/>
<path d="M45.2 70.7998H42V73.9998H45.2V70.7998Z" fill="black"/>
<path d="M51.5999 70.7998H48.3999V73.9998H51.5999V70.7998Z" fill="black"/>
<path d="M54.8001 70.7998H51.6001V73.9998H54.8001V70.7998Z" fill="black"/>
<path d="M64.4 70.7998H61.2V73.9998H64.4V70.7998Z" fill="black"/>
<path d="M77.2 70.7998H74V73.9998H77.2V70.7998Z" fill="black"/>
<path d="M80.4 70.7998H77.2V73.9998H80.4V70.7998Z" fill="black"/>
<path d="M38.8001 74H35.6001V77.2H38.8001V74Z" fill="black"/>
<path d="M42 74H38.8V77.2H42V74Z" fill="black"/>
<path d="M45.2 74H42V77.2H45.2V74Z" fill="black"/>
<path d="M51.5999 74H48.3999V77.2H51.5999V74Z" fill="black"/>
<path d="M58 74H54.8V77.2H58V74Z" fill="black"/>
<path d="M64.4 74H61.2V77.2H64.4V74Z" fill="black"/>
<path d="M67.5999 74H64.3999V77.2H67.5999V74Z" fill="black"/>
<path d="M70.8001 74H67.6001V77.2H70.8001V74Z" fill="black"/>
<path d="M74 74H70.8V77.2H74V74Z" fill="black"/>
<path d="M77.2 74H74V77.2H77.2V74Z" fill="black"/>
<path d="M80.4 74H77.2V77.2H80.4V74Z" fill="black"/>
<path d="M38.8001 77.2002H35.6001V80.4002H38.8001V77.2002Z" fill="black"/>
<path d="M45.2 77.2002H42V80.4002H45.2V77.2002Z" fill="black"/>
<path d="M61.2 77.2002H58V80.4002H61.2V77.2002Z" fill="black"/>
<path d="M64.4 77.2002H61.2V80.4002H64.4V77.2002Z" fill="black"/>
<path d="M67.5999 77.2002H64.3999V80.4002H67.5999V77.2002Z" fill="black"/>
<path d="M70.8001 77.2002H67.6001V80.4002H70.8001V77.2002Z" fill="black"/>
<path d="M77.2 77.2002H74V80.4002H77.2V77.2002Z" fill="black"/>
<path d="M86.8001 77.2002H83.6001V80.4002H86.8001V77.2002Z" fill="black"/>
<path d="M90 77.2002H86.8V80.4002H90V77.2002Z" fill="black"/>
<path d="M38.8001 80.4004H35.6001V83.6004H38.8001V80.4004Z" fill="black"/>
<path d="M42 80.4004H38.8V83.6004H42V80.4004Z" fill="black"/>
<path d="M48.4 80.4004H45.2V83.6004H48.4V80.4004Z" fill="black"/>
<path d="M51.5999 80.4004H48.3999V83.6004H51.5999V80.4004Z" fill="black"/>
<path d="M67.5999 80.4004H64.3999V83.6004H67.5999V80.4004Z" fill="black"/>
<path d="M70.8001 80.4004H67.6001V83.6004H70.8001V80.4004Z" fill="black"/>
<path d="M77.2 80.4004H74V83.6004H77.2V80.4004Z" fill="black"/>
<path d="M83.5999 80.4004H80.3999V83.6004H83.5999V80.4004Z" fill="black"/>
<path d="M90 80.4004H86.8V83.6004H90V80.4004Z" fill="black"/>
<path d="M38.8001 83.5996H35.6001V86.7996H38.8001V83.5996Z" fill="black"/>
<path d="M42 83.5996H38.8V86.7996H42V83.5996Z" fill="black"/>
<path d="M45.2 83.5996H42V86.7996H45.2V83.5996Z" fill="black"/>
<path d="M48.4 83.5996H45.2V86.7996H48.4V83.5996Z" fill="black"/>
<path d="M58 83.5996H54.8V86.7996H58V83.5996Z" fill="black"/>
<path d="M61.2 83.5996H58V86.7996H61.2V83.5996Z" fill="black"/>
<path d="M67.5999 83.5996H64.3999V86.7996H67.5999V83.5996Z" fill="black"/>
<path d="M70.8001 83.5996H67.6001V86.7996H70.8001V83.5996Z" fill="black"/>
<path d="M74 83.5996H70.8V86.7996H74V83.5996Z" fill="black"/>
<path d="M77.2 83.5996H74V86.7996H77.2V83.5996Z" fill="black"/>
<path d="M80.4 83.5996H77.2V86.7996H80.4V83.5996Z" fill="black"/>
<path d="M86.8001 83.5996H83.6001V86.7996H86.8001V83.5996Z" fill="black"/>
<path d="M38.8001 86.7998H35.6001V89.9998H38.8001V86.7998Z" fill="black"/>
<path d="M42 86.7998H38.8V89.9998H42V86.7998Z" fill="black"/>
<path d="M45.2 86.7998H42V89.9998H45.2V86.7998Z" fill="black"/>
<path d="M48.4 86.7998H45.2V89.9998H48.4V86.7998Z" fill="black"/>
<path d="M61.2 86.7998H58V89.9998H61.2V86.7998Z" fill="black"/>
<path d="M67.5999 86.7998H64.3999V89.9998H67.5999V86.7998Z" fill="black"/>
<path d="M83.5999 86.7998H80.3999V89.9998H83.5999V86.7998Z" fill="black"/>
<path d="M86.8001 86.7998H83.6001V89.9998H86.8001V86.7998Z" fill="black"/>
<path d="M90 86.7998H86.8V89.9998H90V86.7998Z" fill="black"/>
<g clip-path="url(#clip2_905_2)">
<path d="M29.232 10H26.0319H22.832H22.8319H19.632H16.432H13.232H10.032V13.2V16.4V19.6V22.8V26V29.1999V32.3999H13.232H16.432H19.632H22.8319H22.832H26.0319H29.232H32.432V29.1999V26V22.8V19.6V16.4V13.2V10H29.232ZM29.232 16.4V19.6V22.8V26V29.1999H26.0319H22.832H22.8319H19.632H16.432H13.232V26V22.8V19.6V16.4V13.2H16.432H19.632H22.8319H22.832H26.0319H29.232V16.4Z" fill="black"/>
</g>
<path d="M22.8001 16.4004H22.8001H19.6001H16.4001V19.6003V22.8004V26.0004H19.6001H22.8001H22.8001H26.0001V22.8004V19.6003V16.4004H22.8001Z" fill="black"/>
<g clip-path="url(#clip3_905_2)">
<path d="M86.8321 10H83.632H80.4321H80.432H77.2321H74.0321H70.8321H67.6321V13.2V16.4V19.6V22.8V26V29.1999V32.3999H70.8321H74.0321H77.2321H80.432H80.4321H83.632H86.8321H90.0321V29.1999V26V22.8V19.6V16.4V13.2V10H86.8321ZM86.8321 16.4V19.6V22.8V26V29.1999H83.632H80.4321H80.432H77.2321H74.0321H70.8321V26V22.8V19.6V16.4V13.2H74.0321H77.2321H80.432H80.4321H83.632H86.8321V16.4Z" fill="black"/>
</g>
<path d="M80.4002 16.4004H80.4002H77.2002H74.0002V19.6003V22.8004V26.0004H77.2002H80.4002H80.4002H83.6002V22.8004V19.6003V16.4004H80.4002Z" fill="black"/>
<g clip-path="url(#clip4_905_2)">
<path d="M29.232 67.5996H26.0319H22.832H22.8319H19.632H16.432H13.232H10.032V70.7996V73.9996V77.1996V80.3996V83.5996V86.7996V89.9995H13.232H16.432H19.632H22.8319H22.832H26.0319H29.232H32.432V86.7996V83.5996V80.3996V77.1996V73.9996V70.7996V67.5996H29.232ZM29.232 73.9996V77.1996V80.3996V83.5996V86.7996H26.0319H22.832H22.8319H19.632H16.432H13.232V83.5996V80.3996V77.1996V73.9996V70.7996H16.432H19.632H22.8319H22.832H26.0319H29.232V73.9996Z" fill="black"/>
</g>
<path d="M22.8001 74H22.8001H19.6001H16.4001V77.2V80.4V83.6H19.6001H22.8001H22.8001H26.0001V80.4V77.2V74H22.8001Z" fill="black"/>
</g>
</g>
<defs>
<clipPath id="clip0_905_2">
<rect width="100" height="100" fill="white"/>
</clipPath>
<clipPath id="clip1_905_2">
<rect width="100" height="100" fill="white"/>
</clipPath>
<clipPath id="clip2_905_2">
<rect width="22.4" height="22.4" fill="white" transform="translate(10 10)"/>
</clipPath>
<clipPath id="clip3_905_2">
<rect width="22.4" height="22.4" fill="white" transform="translate(67.6001 10)"/>
</clipPath>
<clipPath id="clip4_905_2">
<rect width="22.4" height="22.4" fill="white" transform="translate(10 67.5996)"/>
</clipPath>
</defs>
</svg>
